<svg width="900" height="300" viewBox="0 0 900 300" fill="none" xmlns="http://www.w3.org/2000/svg">
<g clip-path="url(#clip0_8_44)">
<rect width="900" height="300" fill="#3B82F6"/>
<path d="M175.319 84.9084C218.919 109.908 259.419 156.808 266.919 211.208C274.519 265.708 249.119 327.708 205.419 375.208C161.819 422.708 99.8189 455.708 33.4189 460.108C-32.8811 464.408 -103.581 440.108 -141.281 392.608C-178.981 345.108 -183.581 274.408 -173.881 213.408C-164.181 152.308 -140.281 100.908 -102.581 75.9084C-64.9811 50.9084 -13.5811 52.3085 35.6189 54.5085C84.7189 56.8085 131.619 59.9084 175.319 84.9084Z" fill="#10B981"/>
<path d="M972.035 -103.652C1022.03 -78.6517 1061.23 -17.8517 1055.03 36.7483C1048.73 91.2483 997.035 139.548 947.035 183.548C897.035 227.548 848.735 267.248 805.235 262.448C761.735 257.648 723.135 208.248 695.635 164.248C668.135 120.248 651.735 81.6483 652.335 43.5483C652.935 5.44833 670.435 -32.0517 697.935 -57.0517C725.435 -82.0517 762.935 -94.5517 812.135 -106.252C861.235 -117.852 922.035 -128.652 972.035 -103.652Z" fill="#10B981"/>
<path d="M219.336 148.92C224.541 150.029 228.723 152.632 231.88 156.728C235.037 160.739 236.616 165.347 236.616 170.552C236.616 178.061 233.971 184.035 228.68 188.472C223.475 192.824 216.179 195 206.792 195H164.936V105.144H205.384C214.515 105.144 221.64 107.235 226.76 111.416C231.965 115.597 234.568 121.272 234.568 128.44C234.568 133.731 233.16 138.125 230.344 141.624C227.613 145.123 223.944 147.555 219.336 148.92ZM186.824 141.496H201.16C204.744 141.496 207.475 140.728 209.352 139.192C211.315 137.571 212.296 135.224 212.296 132.152C212.296 129.08 211.315 126.733 209.352 125.112C207.475 123.491 204.744 122.68 201.16 122.68H186.824V141.496ZM202.952 177.336C206.621 177.336 209.437 176.525 211.4 174.904C213.448 173.197 214.472 170.765 214.472 167.608C214.472 164.451 213.405 161.976 211.272 160.184C209.224 158.392 206.365 157.496 202.696 157.496H186.824V177.336H202.952ZM316.639 158.136C316.639 160.184 316.511 162.317 316.255 164.536H266.719C267.06 168.973 268.468 172.387 270.943 174.776C273.503 177.08 276.618 178.232 280.287 178.232C285.748 178.232 289.546 175.928 291.679 171.32H314.975C313.78 176.013 311.604 180.237 308.447 183.992C305.375 187.747 301.492 190.691 296.799 192.824C292.106 194.957 286.858 196.024 281.055 196.024C274.058 196.024 267.828 194.531 262.367 191.544C256.906 188.557 252.639 184.291 249.567 178.744C246.495 173.197 244.959 166.712 244.959 159.288C244.959 151.864 246.452 145.379 249.439 139.832C252.511 134.285 256.778 130.019 262.239 127.032C267.7 124.045 273.972 122.552 281.055 122.552C287.967 122.552 294.111 124.003 299.487 126.904C304.863 129.805 309.044 133.944 312.031 139.32C315.103 144.696 316.639 150.968 316.639 158.136ZM294.239 152.376C294.239 148.621 292.959 145.635 290.399 143.416C287.839 141.197 284.639 140.088 280.799 140.088C277.13 140.088 274.015 141.155 271.455 143.288C268.98 145.421 267.444 148.451 266.847 152.376H294.239ZM367.994 176.44V195H356.858C348.922 195 342.735 193.08 338.298 189.24C333.861 185.315 331.642 178.957 331.642 170.168V141.752H322.938V123.576H331.642V106.168H353.53V123.576H367.866V141.752H353.53V170.424C353.53 172.557 354.042 174.093 355.066 175.032C356.09 175.971 357.797 176.44 360.186 176.44H367.994ZM419.994 176.44V195H408.858C400.922 195 394.735 193.08 390.298 189.24C385.861 185.315 383.642 178.957 383.642 170.168V141.752H374.938V123.576H383.642V106.168H405.53V123.576H419.866V141.752H405.53V170.424C405.53 172.557 406.042 174.093 407.066 175.032C408.09 175.971 409.797 176.44 412.186 176.44H419.994ZM499.514 158.136C499.514 160.184 499.386 162.317 499.13 164.536H449.594C449.935 168.973 451.343 172.387 453.818 174.776C456.378 177.08 459.493 178.232 463.162 178.232C468.623 178.232 472.421 175.928 474.554 171.32H497.85C496.655 176.013 494.479 180.237 491.322 183.992C488.25 187.747 484.367 190.691 479.674 192.824C474.981 194.957 469.733 196.024 463.93 196.024C456.933 196.024 450.703 194.531 445.242 191.544C439.781 188.557 435.514 184.291 432.442 178.744C429.37 173.197 427.834 166.712 427.834 159.288C427.834 151.864 429.327 145.379 432.314 139.832C435.386 134.285 439.653 130.019 445.114 127.032C450.575 124.045 456.847 122.552 463.93 122.552C470.842 122.552 476.986 124.003 482.362 126.904C487.738 129.805 491.919 133.944 494.906 139.32C497.978 144.696 499.514 150.968 499.514 158.136ZM477.114 152.376C477.114 148.621 475.834 145.635 473.274 143.416C470.714 141.197 467.514 140.088 463.674 140.088C460.005 140.088 456.89 141.155 454.33 143.288C451.855 145.421 450.319 148.451 449.722 152.376H477.114ZM532.949 135.48C535.509 131.555 538.709 128.483 542.549 126.264C546.389 123.96 550.656 122.808 555.349 122.808V145.976H549.333C543.872 145.976 539.776 147.171 537.045 149.56C534.314 151.864 532.949 155.96 532.949 161.848V195H511.061V123.576H532.949V135.48ZM629.811 210.36L618.291 194.872C614.878 195.555 611.55 195.896 608.307 195.896C599.859 195.896 592.094 193.933 585.011 190.008C578.014 186.083 572.424 180.621 568.243 173.624C564.147 166.541 562.099 158.605 562.099 149.816C562.099 141.027 564.147 133.133 568.243 126.136C572.424 119.139 578.014 113.677 585.011 109.752C592.094 105.827 599.859 103.864 608.307 103.864C616.755 103.864 624.478 105.827 631.475 109.752C638.558 113.677 644.104 119.139 648.115 126.136C652.211 133.133 654.259 141.027 654.259 149.816C654.259 157.496 652.68 164.536 649.523 170.936C646.451 177.251 642.142 182.499 636.595 186.68L656.307 210.36H629.811ZM584.499 149.816C584.499 157.752 586.632 164.109 590.899 168.888C595.251 173.581 601.054 175.928 608.307 175.928C615.475 175.928 621.192 173.539 625.459 168.76C629.811 163.981 631.987 157.667 631.987 149.816C631.987 141.88 629.811 135.565 625.459 130.872C621.192 126.093 615.475 123.704 608.307 123.704C601.054 123.704 595.251 126.051 590.899 130.744C586.632 135.437 584.499 141.795 584.499 149.816ZM712.51 195L693.822 161.08H688.574V195H666.686V105.144H703.422C710.505 105.144 716.521 106.381 721.47 108.856C726.505 111.331 730.259 114.744 732.734 119.096C735.209 123.363 736.446 128.141 736.446 133.432C736.446 139.405 734.739 144.739 731.326 149.432C727.998 154.125 723.049 157.453 716.478 159.416L737.214 195H712.51ZM688.574 145.592H702.142C706.153 145.592 709.139 144.611 711.102 142.648C713.15 140.685 714.174 137.912 714.174 134.328C714.174 130.915 713.15 128.227 711.102 126.264C709.139 124.301 706.153 123.32 702.142 123.32H688.574V145.592Z" fill="white"/>
</g>
<defs>
<clipPath id="clip0_8_44">
<rect width="900" height="300" fill="white"/>
</clipPath>
</defs>
</svg>
